<?xml version="1.0" encoding="UTF-8"?>
<svg width="20px" height="21px" viewBox="0 0 20 21" version="1.1" xmlns="http://www.w3.org/2000/svg" xmlns:xlink="http://www.w3.org/1999/xlink">
    <title>切片</title>
    <defs>
        <filter id="filter-1">
            <feColorMatrix in="SourceGraphic" type="matrix" values="0 0 0 0 0.400000 0 0 0 0 0.400000 0 0 0 0 0.400000 0 0 0 1.000000 0"></feColorMatrix>
        </filter>
    </defs>
    <g id="页面-1" stroke="none" stroke-width="1" fill="none" fill-rule="evenodd">
        <g id="我的班级" transform="translate(-256.000000, -713.000000)">
            <g id="背景" transform="translate(0.000000, -1.000000)">
                <g id="footer" transform="translate(0.000000, 697.000000)">
                    <g id="办事字" transform="translate(0.000000, 16.000000)">
                        <g id="random-forest" transform="translate(256.000000, 1.000000)" filter="url(#filter-1)">
                            <g>
                                <rect id="矩形" fill="#000000" fill-rule="nonzero" opacity="0" x="0" y="0" width="20" height="20"></rect>
                                <path d="M9.77734375,11.7148438 C10.1621094,12.1933594 10.5878906,12.6464844 11.0878906,13.0410156 C12.1894531,13.9101562 13.4882812,14.3515625 15.0546875,14.390625 L14.53125,14.9121094 C14.2558594,15.1875 14.2558594,15.6328125 14.53125,15.90625 C14.6679687,16.0429688 14.8476562,16.1113281 15.0292969,16.1113281 C15.2109375,16.1113281 15.3886719,16.0429688 15.5273437,15.90625 L17.1679688,14.265625 C17.3125,14.1210938 17.3808594,13.9296875 17.3730469,13.7402344 C17.4296875,13.5097656 17.3671875,13.2558594 17.1875,13.0761719 L15.546875,11.4355469 C15.2714844,11.1601562 14.8261719,11.1601562 14.5527344,11.4355469 C14.2792969,11.7109375 14.2773438,12.15625 14.5527344,12.4296875 L15.1074219,12.984375 C12.8144531,12.9335938 11.6484375,11.8808594 10.6152344,10.5019531 C10.4746094,10.7011719 10.3339844,10.9082031 10.1875,11.1191406 C10.0527344,11.3183594 9.91601562,11.515625 9.77734375,11.7148438 Z M7.4765625,6.6328125 C6.31640625,5.71875 4.93359375,5.2734375 3.25195312,5.2734375 C2.86328125,5.2734375 2.54882812,5.58789063 2.54882812,5.9765625 C2.54882812,6.36523438 2.86328125,6.6796875 3.25195312,6.6796875 C6.09179687,6.6796875 7.25976562,8.14453125 8.48242188,9.91210938 C8.75976562,9.5078125 9.04296875,9.09570312 9.34765625,8.69726563 C8.81640625,7.953125 8.23046875,7.2265625 7.4765625,6.6328125 Z M17.4121094,6.609375 C17.4199219,6.41992188 17.3515625,6.22851563 17.2070312,6.08398438 L15.5664062,4.44335938 C15.2910156,4.16796875 14.8457031,4.16796875 14.5722656,4.44335938 C14.296875,4.71875 14.296875,5.1640625 14.5722656,5.4375 L15.09375,5.95898438 C13.5273438,5.99804688 12.2285156,6.44140625 11.1269531,7.30859375 C10.1289062,8.09570313 9.42578125,9.11914063 8.74804688,10.109375 C7.43554688,12.0214844 6.3046875,13.671875 3.29101562,13.671875 C2.90234375,13.671875 2.58789062,13.9863281 2.58789062,14.375 C2.58789062,14.7636719 2.90234375,15.078125 3.29101562,15.078125 C4.97265625,15.078125 6.35546875,14.6328125 7.515625,13.71875 C8.51953125,12.9277344 9.22460938,11.9003906 9.90625,10.90625 C11.1855469,9.04296875 12.2929688,7.42773438 15.1445313,7.36523438 L14.5898438,7.91992188 C14.3144531,8.1953125 14.3144531,8.640625 14.5898438,8.9140625 C14.7265625,9.05078125 14.90625,9.11914062 15.0878906,9.11914062 C15.2695312,9.11914062 15.4472656,9.05078125 15.5859375,8.9140625 L17.2265625,7.2734375 C17.40625,7.09375 17.46875,6.83984375 17.4121094,6.609375 Z" id="形状" fill="#000000" fill-rule="nonzero"></path>
                            </g>
                        </g>
                    </g>
                </g>
            </g>
        </g>
    </g>
</svg>