<?xml version="1.0" encoding="UTF-8"?>
<svg width="20px" height="21px" viewBox="0 0 20 21" version="1.1" xmlns="http://www.w3.org/2000/svg" xmlns:xlink="http://www.w3.org/1999/xlink">
    <title>切片</title>
    <g id="页面-1" stroke="none" stroke-width="1" fill="none" fill-rule="evenodd">
        <g id="我的班级" transform="translate(-144.000000, -712.000000)" fill-rule="nonzero">
            <g id="背景" transform="translate(0.000000, -1.000000)">
                <g id="footer" transform="translate(0.000000, 697.000000)">
                    <g id="办事字" transform="translate(0.000000, 16.000000)">
                        <g id="多人" transform="translate(144.000000, 0.000000)">
                            <rect id="矩形" fill="#000000" opacity="0" x="0" y="0" width="20" height="20"></rect>
                            <path d="M12.046875,9.75625 C12.9128906,9.12324219 13.4787109,8.10292969 13.4787109,6.95058594 C13.4787109,5.03359375 11.9189453,3.47382812 10.0017578,3.47382812 C8.08457031,3.47382812 6.52480469,5.03339844 6.52480469,6.95058594 C6.52480469,8.10292969 7.09082031,9.1234375 7.95683594,9.75644531 C5.71386719,10.5904297 4.10878906,12.7462891 4.10878906,15.2757812 L4.10878906,16.5310547 L15.894336,16.5310547 L15.894336,15.2757812 C15.8947266,12.7460937 14.2896484,10.5900391 12.046875,9.75625 Z M10.0019531,4.65917969 C11.265625,4.65917969 12.2935547,5.68710937 12.2935547,6.95058594 C12.2935547,8.21425781 11.265625,9.2421875 10.0019531,9.2421875 C8.73828125,9.2421875 7.71035156,8.21425781 7.71035156,6.95058594 C7.71035156,5.68710937 8.73828125,4.65917969 10.0019531,4.65917969 Z M14.7095703,15.3457031 L5.29433594,15.3457031 L5.29433594,15.2755859 C5.29433594,12.6798828 7.40644531,10.5679687 10.0025391,10.5679687 C12.5980469,10.5679687 14.7095703,12.6798828 14.7095703,15.2755859 L14.7095703,15.3457031 Z" id="形状" fill="#666666"></path>
                            <path d="M6.809375,9.81308594 C6.809375,9.79277344 6.80546875,9.77363281 6.80351563,9.75390625 C6.80527344,9.73535156 6.80917969,9.71757812 6.80917969,9.69863281 C6.80917969,9.37128906 6.54394531,9.10605469 6.21660156,9.10605469 C5.24902344,9.10605469 4.46191406,8.31894531 4.46191406,7.35136719 C4.46191406,6.38398437 5.24902344,5.596875 6.21660156,5.596875 C6.54394531,5.596875 6.80917969,5.33164062 6.80917969,5.00429687 C6.80917969,4.67695312 6.54394531,4.41171875 6.21660156,4.41171875 C4.59570313,4.41171875 3.27675781,5.73046875 3.27675781,7.35136719 C3.27675781,8.25292969 3.68554688,9.06035156 4.32675781,9.6 C2.55703125,10.3417969 1.31054688,12.0908203 1.31054688,14.1261719 L1.31054688,14.6654297 C1.31054688,14.9927734 1.57578125,15.2580078 1.903125,15.2580078 C2.23046875,15.2580078 2.49570313,14.9927734 2.49570313,14.6654297 L2.49570313,14.1261719 C2.49570313,12.0746094 4.16484375,10.4056641 6.21679688,10.4056641 C6.54414063,10.4056641 6.809375,10.1404297 6.809375,9.81308594 Z M15.6773437,9.60019531 C16.3185547,9.06054687 16.7273437,8.253125 16.7273437,7.3515625 C16.7273437,5.73066406 15.4083984,4.41191406 13.7875,4.41191406 C13.4601562,4.41191406 13.1949219,4.67714844 13.1949219,5.00449219 C13.1949219,5.33183594 13.4601562,5.59707031 13.7875,5.59707031 C14.7550781,5.59707031 15.5421875,6.38417969 15.5421875,7.3515625 C15.5421875,8.31914062 14.7550781,9.10625 13.7875,9.10625 C13.4601562,9.10625 13.1949219,9.37148437 13.1949219,9.69882812 C13.1949219,9.71777344 13.1988281,9.73574219 13.2005859,9.75410156 C13.1986328,9.77382812 13.1947266,9.79296875 13.1947266,9.81328125 C13.1947266,10.140625 13.4599609,10.4058594 13.7873047,10.4058594 C15.8392578,10.4058594 17.5083984,12.0748047 17.5083984,14.1263672 L17.5083984,14.665625 C17.5083984,14.9929687 17.7736328,15.2582031 18.1009766,15.2582031 C18.4283203,15.2582031 18.6935547,14.9929687 18.6935547,14.665625 L18.6935547,14.1263672 C18.6933594,12.0908203 17.4466797,10.3417969 15.6773437,9.60019531 Z" id="形状" fill="#666666"></path>
                        </g>
                    </g>
                </g>
            </g>
        </g>
    </g>
</svg>