<?xml version="1.0" encoding="UTF-8"?>
<svg width="20px" height="21px" viewBox="0 0 20 21" version="1.1" xmlns="http://www.w3.org/2000/svg" xmlns:xlink="http://www.w3.org/1999/xlink">
    <title>切片</title>
    <g id="页面-1" stroke="none" stroke-width="1" fill="none" fill-rule="evenodd">
        <g id="我的班级" transform="translate(-32.000000, -713.000000)" fill-rule="nonzero">
            <g id="背景" transform="translate(0.000000, -1.000000)">
                <g id="footer" transform="translate(0.000000, 697.000000)">
                    <g id="办事字" transform="translate(0.000000, 16.000000)">
                        <g id="考勤管理" transform="translate(32.000000, 1.000000)">
                            <rect id="矩形" fill="#000000" opacity="0" x="0" y="0" width="20" height="20"></rect>
                            <path d="M15.9277344,4.22742188 L13.4795117,4.22742188 L13.4795117,3.16037109 L12.5420117,3.16037109 L12.5420117,4.22742188 L7.45798828,4.22742188 L7.45798828,3.16037109 L6.52048828,3.16037109 L6.52048828,4.22742188 L4.07226562,4.22742188 C3.29685547,4.22742188 2.66601562,4.85826172 2.66601562,5.63367188 L2.66601562,15.6336719 C2.66601562,16.409082 3.29685547,17.0399219 4.07226562,17.0399219 L15.9277344,17.0399219 C16.7031445,17.0399219 17.3339844,16.409082 17.3339844,15.6336719 L17.3339844,5.63367188 C17.3339844,4.85826172 16.7031445,4.22742188 15.9277344,4.22742188 Z M16.3964844,15.6336719 C16.3964844,15.8921289 16.1861914,16.1024219 15.9277344,16.1024219 L4.07226562,16.1024219 C3.81378906,16.1024219 3.60351562,15.8921289 3.60351562,15.6336719 L3.60351562,5.63367188 C3.60351562,5.37519531 3.81378906,5.16492188 4.07226562,5.16492188 L6.52048828,5.16492188 L6.52048828,6.19789063 L7.45798828,6.19789063 L7.45798828,5.16492188 L12.5420313,5.16492188 L12.5420313,6.19789063 L13.4795313,6.19789063 L13.4795313,5.16492188 L15.9277344,5.16492188 C16.1861914,5.16492188 16.3964844,5.37519531 16.3964844,5.63367188 L16.3964844,15.6336719 Z M12.3389453,8.30398438 L9.11933594,12.7369727 L7.65833984,10.7266602 C7.6376389,10.7309856 7.61626735,10.7309856 7.59556641,10.7266602 L6.49494141,10.7266602 L9.05841797,14.2548047 C9.08716797,14.2942773 9.13193359,14.3169141 9.18126953,14.3169141 C9.23058594,14.3169141 9.2753125,14.2943359 9.30398438,14.2549805 L13.6263867,8.30439453 L12.5237891,8.30439453 C12.474668,8.30466797 12.4282813,8.32792969 12.3996094,8.36675781 L12.3389453,8.30398438 Z" id="形状" fill="#666666"></path>
                        </g>
                    </g>
                </g>
            </g>
        </g>
    </g>
</svg>