<?xml version="1.0" encoding="UTF-8"?>
<svg width="14px" height="15px" viewBox="0 0 14 15" version="1.1" xmlns="http://www.w3.org/2000/svg" xmlns:xlink="http://www.w3.org/1999/xlink">
    <title>切片</title>
    <g id="页面-1" stroke="none" stroke-width="1" fill="none" fill-rule="evenodd">
        <g id="我的班级" transform="translate(-311.000000, -165.000000)" fill-rule="nonzero">
            <g id="编组-2" transform="translate(26.000000, 162.000000)">
                <g id="star" transform="translate(285.000000, 3.000000)">
                    <path d="M7.24448463,12.0903189 L10.705649,13.321829 C11.1380965,13.4879863 11.6041563,13.1553356 11.6041563,12.6894518 L11.5041995,9.02869378 C11.5041995,8.86220042 11.5376358,8.72912733 11.6374166,8.59589427 C8.64216808,11.5913188 6.81186108,12.0903189 6.81186108,12.0903189 C6.94493417,12.0237823 7.07799127,12.0237823 7.24448463,12.0903189" id="路径" fill="#888888"></path>
                    <path d="M13.5344201,4.63564981 L10.0067192,3.60408534 C9.87366216,3.57074508 9.74041308,3.47077228 9.64063225,3.33771517 L7.54387509,0.309254359 C7.27774491,-0.0900289219 6.71208025,-0.0900289219 6.44577408,0.309254359 L4.38229319,3.37105544 C4.28265634,3.50419253 4.18268355,3.60406934 4.01636617,3.63726562 L0.488681266,4.63564981 C0.0560577188,4.76880291 -0.143551922,5.30123927 0.156014531,5.66732627 L2.38566881,8.56279397 C2.48544964,8.69585106 2.51872591,8.82892416 2.51872591,8.99524153 L2.45218936,12.6894358 C2.45218936,13.1553196 2.88481291,13.4879703 3.35069672,13.321813 L6.81186108,12.0903029 C6.81186108,12.0903029 8.64232806,11.5911428 11.6374166,8.59586227 L13.8672469,5.70065053 C14.1333771,5.33457953 13.9670437,4.76880289 13.5344201,4.63564981 Z" id="路径" fill="#BFBFBF"></path>
                    <path d="M7.07816725,8.22987125 L8.07647144,8.59587827 C8.20952853,8.62933052 8.30950134,8.56279397 8.30950133,8.42956089 L8.27604908,7.36456017 C8.27604908,7.33137989 8.27604908,7.29803963 8.30950133,7.26485933 L8.97513878,6.39953225 C9.04167533,6.29973542 9.00822308,6.16650234 8.87518198,6.13332206 L7.84360152,5.83385161 C7.81016527,5.83385161 7.77708097,5.80049534 7.74364472,5.76731506 L7.1447038,4.8687117 C7.07816725,4.76883489 6.91167389,4.76883489 6.84513734,4.8687117 L6.24600445,5.76731506 C6.21274417,5.80049534 6.17948391,5.83385161 6.14622362,5.83385161 L5.11465916,6.13332206 C4.98160206,6.16650234 4.94814981,6.29973542 5.01468636,6.39953225 L5.68049978,7.26485933 C5.71360008,7.29803961 5.71360008,7.33137987 5.71360008,7.36456017 L5.68049978,8.42956089 C5.68049978,8.56279397 5.81355687,8.62933052 5.91319372,8.59587827 L6.91167389,8.22987125 L7.07816725,8.22987125 L7.07816725,8.22987125 Z" id="路径" fill="#FFFFFF"></path>
                </g>
            </g>
        </g>
    </g>
</svg>